<svg xmlns="http://www.w3.org/2000/svg" xmlns:xlink="http://www.w3.org/1999/xlink" width="567" height="465" viewBox="0 0 567 465">
    <defs>
        <path id="g7kbe07l0a" d="M203.081 204.203L0.055 86.644 144.434 0.788 347.46 118.347z"/>
        <path id="4d0azz14mc" d="M34.481 5.402L0.641 35.815 61.848 72.199 114.702 24.916 72.844 0.703z"/>
        <path id="ks5y590m8e" d="M175.02 78.255C181.194 73.5 265.566.184 265.566.184l91.803 62.442s-105.411 61.638-117.44 70.694c-8.786 6.612-22.7 32.876-34.069 53.296-5.285 9.496-9.003 17.664-45.528 35.141-28.235 13.508-46.657 41.211-59.289 18.687-11.41 10.837-53.036 39.892-56.03 17.12-15.06 13.851-45.5 9.437-19.975-20.087-28.19 12.507-32.044-8.548-13.718-21.055 28.003-20.172 106.645-89.413 83.1-82.464-17.687 5.22-77.908 26.796-77.908.56 0-17.338 41.616-20.839 63.28-29.65 18.074-6.775 35.152-17.058 53.92-20.392"/>
        <path id="mxq2bft9xh" d="M14.773 8.46c-19.254 10.822-19.69 28.678-.975 39.879 18.713 11.206 49.493 11.519 68.745.7 19.255-10.823 19.693-28.68.975-39.886C73.948 3.425 61.223.545 48.498.545c-12.158 0-24.316 2.628-33.725 7.914"/>
        <path id="hny7d41n6k" d="M0.294 0.019L24.33 0.019 24.33 43.328 0.294 43.328z"/>
        <linearGradient id="p0zq7m2def" x1="38.02%" x2="72.854%" y1="60.985%" y2=".822%">
            <stop offset="0%" stop-color="#A1A1BF"/>
            <stop offset="100%" stop-color="#FFF"/>
        </linearGradient>
        <linearGradient id="7liu1v6iti" x1="32.265%" x2="67.735%" y1="-3.034%" y2="103.034%">
            <stop offset="0%" stop-color="#DFDFE4"/>
            <stop offset="100%" stop-color="#D6D6DD"/>
        </linearGradient>
    </defs>
    <g fill="none" fill-rule="evenodd">
        <g>
            <g>
                <path fill="#027043" d="M397.02 374L567 273.215 567 267.272 158 236z" transform="translate(-986 -2313) translate(986 2313)"/>
                <path fill="#05CE7C" d="M158 229.298L397.02 368 567 266.705 327.98 128z" transform="translate(-986 -2313) translate(986 2313)"/>
                <g transform="translate(-986 -2313) translate(986 2313) translate(209 132)">
                    <mask id="35wlzgvjub" fill="#fff">
                        <use xlink:href="#g7kbe07l0a"/>
                    </mask>
                    <path fill="#E8B034" d="M203.081 204.203L0.055 86.644 144.434 0.788 347.46 118.347z" mask="url(#35wlzgvjub)"/>
                </g>
                <path fill="#027043" d="M398 314L398 367 352 340.5z" transform="translate(-986 -2313) translate(986 2313)"/>
                <path fill="#027043" d="M0 327.029L238.801 465 398 320.878 0 320z" transform="translate(-986 -2313) translate(986 2313)"/>
                <path fill="#05CE7C" d="M0 320.585L238.801 459 398 314.415 159.202 176z" transform="translate(-986 -2313) translate(986 2313)"/>
                <g>
                    <path fill="#05CE7C" d="M5.703 85.633c-3.16.162-5.593 2.862-5.431 6.03.158 3.172 2.854 5.609 6.014 5.45 3.158-.162 5.59-2.863 5.429-6.033-.16-3.17-2.851-5.61-6.012-5.447" transform="translate(-986 -2313) translate(986 2313) translate(93 85)"/>
                    <path fill="#0B242E" d="M161.366 238.004c-.052 1.42.452 2.78 1.419 3.83.967 1.04 2.281 1.648 3.7 1.7.068 0 .134.005.203.005 1.347 0 2.62-.503 3.615-1.428 1.04-.97 1.643-2.289 1.698-3.709.107-2.942-2.188-5.422-5.119-5.532-.068 0-.134-.006-.203-.006-2.84 0-5.203 2.267-5.313 5.14m5.322 6.357c-.077 0-.154 0-.236-.003-1.635-.06-3.155-.761-4.27-1.964-1.115-1.209-1.695-2.778-1.635-4.426.126-3.313 2.854-5.928 6.132-5.928.08 0 .157 0 .233.008 3.386.13 6.037 2.99 5.908 6.384-.06 1.643-.759 3.165-1.958 4.286-1.145 1.066-2.621 1.643-4.174 1.643M434.366 112.712c5.212 3.027 7.981 9.002 6.927 14.952-1.792 10.078-4.33 24.302-4.503 24.866-.778 2.593-2.528 4.955-5.289 6.477l-91.994 51.435c-7.154 3.978-15.985 3.978-23.139 0l-74.208-42.93c-3.558-1.97-5.461-5.324-5.735-8.774l-.038-6.008c-.156-3.9 1.758-6.409 5.784-8.65l88.527-49.543 9.135-26.978c1.424-4.211 6.332-6.06 10.164-3.832l84.369 48.985z" transform="translate(-986 -2313) translate(986 2313) translate(93 85)"/>
                    <path fill="#1A536B" d="M431.865 120.574c-1.136 6.258-2.818 15.194-3.81 20.419-.391 2.082-2.72 3.145-4.552 2.085L339.57 94.494c-1.61-.934-2.34-2.879-1.734-4.645l6.392-18.655c.628-1.832 2.767-2.634 4.44-1.667l81.31 46.979c1.424.821 2.18 2.448 1.887 4.068" transform="translate(-986 -2313) translate(986 2313) translate(93 85)"/>
                    <path fill="#05CE7C" d="M436.81 120.802l-5.655 29.589c-.22.923-.81 1.716-1.638 2.175l-90.26 50.427c-7.141 3.959-15.966 3.959-23.14 0l-74.207-42.95c-1.616-.898-2.879-2.087-3.813-3.452-.019.197.02.527.02.527.254 3.101 1.985 5.771 4.763 7.313l74.208 42.933c3.229 1.79 6.885 2.727 10.596 2.727 3.736 0 7.387-.936 10.616-2.727l93.15-52.012c1.337-.748 1.962-2.165 2.241-3.676.534-2.887 3.177-17.564 4.407-24.388.403-2.25-.058-4.563-1.287-6.486" transform="translate(-986 -2313) translate(986 2313) translate(93 85)"/>
                    <path fill="#03090B" d="M325.329 108.038l-.006 2.415c0 .308.156.618.46.797l13.637 7.862c.715.414 1.6.412 2.317-.006l5.999-3.491c.304-.182.457-.492.457-.8l.006-2.137-22.87-4.64z" transform="translate(-986 -2313) translate(986 2313) translate(93 85)"/>
                    <path fill="#E8B034" d="M325.789 107.268l5.992-3.494c.718-.417 1.603-.42 2.32-.003l13.637 7.86c.611.354.614 1.241.003 1.598l-5.998 3.492c-.718.42-1.6.42-2.317.005l-13.635-7.862c-.616-.354-.619-1.241-.002-1.596" transform="translate(-986 -2313) translate(986 2313) translate(93 85)"/>
                    <path fill="#03090B" d="M302.243 121.451l-.005 2.412c0 .31.156.621.46.8l13.637 7.862c.715.415 1.6.412 2.317-.006l13.604-7.911c.307-.179.46-.49.46-.802l.006-2.135-30.479-.22z" transform="translate(-986 -2313) translate(986 2313) translate(93 85)"/>
                    <path fill="#05CE7C" d="M302.7 120.679l13.607-7.911c.715-.415 1.6-.418 2.318-.006l13.634 7.862c.616.354.619 1.244.003 1.599l-13.605 7.911c-.717.418-1.602.42-2.32.006l-13.634-7.862c-.613-.355-.616-1.242-.002-1.599" transform="translate(-986 -2313) translate(986 2313) translate(93 85)"/>
                    <path fill="#03090B" d="M314.533 182.248l-.005 2.412c0 .31.156.62.463.8l13.634 7.858c.718.418 1.6.415 2.317-.002l36.693-21.323c.307-.181.46-.491.458-.802l.008-2.137-53.568 13.194z" transform="translate(-986 -2313) translate(986 2313) translate(93 85)"/>
                    <path fill="#05CE7C" d="M314.994 181.476l36.69-21.326c.718-.414 1.6-.417 2.32-.002l13.634 7.862c.614.354.614 1.241.003 1.598l-36.693 21.323c-.718.417-1.6.42-2.317.005l-13.635-7.862c-.616-.354-.616-1.241-.002-1.598" transform="translate(-986 -2313) translate(986 2313) translate(93 85)"/>
                    <path fill="#03090B" d="M344.865 119.42l-.006 2.416c0 .31.154.618.46.796l13.637 7.862c.715.415 1.6.415 2.318-.005l5.995-3.492c.307-.178.46-.489.46-.8l.006-2.136-22.87-4.64z" transform="translate(-986 -2313) translate(986 2313) translate(93 85)"/>
                    <path fill="#05CE7C" d="M345.322 118.65l5.996-3.493c.717-.418 1.6-.418 2.32-.003l13.634 7.86c.613.354.616 1.24.002 1.598l-5.995 3.494c-.718.418-1.602.418-2.32.003l-13.634-7.86c-.614-.354-.616-1.241-.003-1.598" transform="translate(-986 -2313) translate(986 2313) translate(93 85)"/>
                    <path fill="#03090B" d="M321.78 132.834l-.009 2.415c.003.307.156.618.463.796l13.637 7.862c.715.415 1.6.412 2.314-.005l13.607-7.912c.307-.178.46-.489.46-.799l.006-2.134-30.479-.223z" transform="translate(-986 -2313) translate(986 2313) translate(93 85)"/>
                    <path fill="#05CE7C" d="M322.237 132.064l13.607-7.914c.714-.415 1.6-.418 2.317-.003l13.634 7.86c.616.354.616 1.244.003 1.6l-13.604 7.91c-.718.42-1.603.42-2.32.005l-13.635-7.862c-.613-.354-.616-1.242-.002-1.596" transform="translate(-986 -2313) translate(986 2313) translate(93 85)"/>
                    <path fill="#03090B" d="M298.691 146.247l-.005 2.412c0 .31.156.62.462.8l13.635 7.859c.717.417 1.6.414 2.317-.003l13.607-7.911c.304-.179.46-.49.457-.803l.006-2.134-30.479-.22z" transform="translate(-986 -2313) translate(986 2313) translate(93 85)"/>
                    <path fill="#05CE7C" d="M299.151 145.474l13.607-7.911c.715-.415 1.6-.418 2.314-.003l13.638 7.86c.616.354.616 1.244.002 1.598l-13.607 7.912c-.717.42-1.6.42-2.317.005l-13.634-7.862c-.616-.354-.616-1.241-.003-1.599" transform="translate(-986 -2313) translate(986 2313) translate(93 85)"/>
                    <path fill="#03090B" d="M275.606 159.66l-.006 2.412c0 .31.156.621.463.8l13.634 7.859c.718.417 1.6.415 2.317-.003l13.607-7.914c.304-.176.458-.486.458-.8l.005-2.134-30.478-.22z" transform="translate(-986 -2313) translate(986 2313) translate(93 85)"/>
                    <path fill="#05CE7C" d="M276.066 158.888l13.604-7.912c.718-.415 1.602-.417 2.317-.005l13.637 7.862c.614.354.616 1.244.003 1.598l-13.607 7.912c-.718.417-1.6.42-2.317.005l-13.634-7.862c-.617-.354-.617-1.241-.003-1.598" transform="translate(-986 -2313) translate(986 2313) translate(93 85)"/>
                    <path fill="#03090B" d="M279.158 134.782l-.008 2.412c.002.31.156.62.462.799l13.637 7.86c.715.417 1.6.414 2.315-.004l13.607-7.914c.306-.176.46-.486.46-.8l.005-2.134-30.478-.22z" transform="translate(-986 -2313) translate(986 2313) translate(93 85)"/>
                    <path fill="#05CE7C" d="M279.615 134.009l13.607-7.911c.715-.415 1.6-.418 2.317-.006l13.634 7.862c.617.354.617 1.244.003 1.599l-13.604 7.911c-.718.418-1.602.42-2.32.006l-13.634-7.862c-.614-.355-.616-1.242-.003-1.6" transform="translate(-986 -2313) translate(986 2313) translate(93 85)"/>
                    <path fill="#03090B" d="M256.07 148.195l-.006 2.412c0 .31.156.62.463.8l13.634 7.858c.718.415 1.6.415 2.317-.005l13.607-7.912c.304-.175.46-.486.458-.799l.005-2.134-30.478-.22z" transform="translate(-986 -2313) translate(986 2313) translate(93 85)"/>
                    <path fill="#05CE7C" d="M256.53 147.422l13.607-7.911c.714-.418 1.6-.418 2.314-.006l13.637 7.862c.616.355.616 1.245.003 1.599l-13.607 7.911c-.718.418-1.6.42-2.317.003l-13.635-7.86c-.616-.354-.616-1.24-.002-1.598" transform="translate(-986 -2313) translate(986 2313) translate(93 85)"/>
                    <path fill="#03090B" d="M364.4 130.806l-.005 2.412c0 .31.154.62.46.8l13.637 7.858c.715.415 1.6.415 2.315-.005l5.998-3.492c.307-.178.46-.489.46-.799l.006-2.137-22.87-4.637z" transform="translate(-986 -2313) translate(986 2313) translate(93 85)"/>
                    <path fill="#05CE7C" d="M364.858 130.033l5.996-3.491c.717-.42 1.6-.42 2.32-.006l13.634 7.862c.613.355.613 1.242.003 1.596l-5.996 3.494c-.718.418-1.602.42-2.32.003l-13.634-7.86c-.614-.353-.616-1.24-.003-1.598" transform="translate(-986 -2313) translate(986 2313) translate(93 85)"/>
                    <path fill="#03090B" d="M341.313 144.216l-.006 2.415c0 .31.156.618.463.797l13.634 7.862c.718.414 1.6.414 2.317-.006l13.607-7.911c.304-.176.458-.487.458-.8l.005-2.134-30.478-.223z" transform="translate(-986 -2313) translate(986 2313) translate(93 85)"/>
                    <path fill="#05CE7C" d="M341.773 143.446l13.607-7.911c.715-.418 1.6-.42 2.314-.006l13.637 7.86c.614.354.616 1.244.003 1.601l-13.607 7.912c-.718.417-1.6.42-2.317.002l-13.635-7.859c-.616-.354-.616-1.242-.002-1.599" transform="translate(-986 -2313) translate(986 2313) translate(93 85)"/>
                    <path fill="#03090B" d="M318.227 157.63l-.005 2.414c0 .308.156.618.463.797l13.634 7.862c.717.414 1.6.412 2.317-.006l13.607-7.911c.304-.179.457-.49.457-.8l.006-2.137-30.479-.22z" transform="translate(-986 -2313) translate(986 2313) translate(93 85)"/>
                    <path fill="#05CE7C" d="M318.687 156.86l13.604-7.914c.718-.415 1.603-.418 2.318-.003l13.637 7.86c.613.353.616 1.243.002 1.6l-13.607 7.91c-.717.42-1.6.42-2.317.005l-13.634-7.862c-.616-.355-.616-1.242-.003-1.596" transform="translate(-986 -2313) translate(986 2313) translate(93 85)"/>
                    <path fill="#03090B" d="M295.142 171.043l-.006 2.411c0 .31.156.621.46.8l13.637 7.86c.715.417 1.6.414 2.318-.004l13.604-7.911c.306-.179.46-.489.46-.802l.005-2.135-30.478-.22z" transform="translate(-986 -2313) translate(986 2313) translate(93 85)"/>
                    <path fill="#05CE7C" d="M295.6 170.27l13.606-7.911c.715-.415 1.6-.418 2.317-.003l13.637 7.86c.614.354.616 1.244.003 1.598l-13.607 7.911c-.718.418-1.6.42-2.32.006l-13.631-7.862c-.617-.354-.62-1.242-.006-1.599" transform="translate(-986 -2313) translate(986 2313) translate(93 85)"/>
                    <path fill="#03090B" d="M383.934 142.188l-.005 2.412c0 .31.156.62.463.8l13.634 7.859c.718.417 1.6.414 2.317-.003l5.998-3.494c.304-.179.458-.49.458-.8l.005-2.137-22.87-4.637z" transform="translate(-986 -2313) translate(986 2313) translate(93 85)"/>
                    <path fill="#05CE7C" d="M384.394 141.416l5.996-3.492c.715-.42 1.6-.42 2.317-.005l13.637 7.862c.61.354.613 1.241.003 1.599l-5.999 3.491c-.717.418-1.6.42-2.317.003l-13.634-7.86c-.616-.354-.616-1.241-.003-1.598" transform="translate(-986 -2313) translate(986 2313) translate(93 85)"/>
                    <path fill="#03090B" d="M360.849 155.602l-.006 2.411c0 .31.156.621.463.797l13.634 7.862c.718.415 1.6.415 2.318-.005l13.606-7.912c.304-.176.458-.486.458-.8l.005-2.134-30.478-.22z" transform="translate(-986 -2313) translate(986 2313) translate(93 85)"/>
                    <path fill="#05CE7C" d="M361.309 154.829l13.604-7.912c.718-.417 1.602-.417 2.317-.005l13.637 7.862c.614.354.616 1.244.003 1.599l-13.607 7.911c-.718.418-1.6.42-2.317.003l-13.634-7.86c-.617-.354-.62-1.241-.003-1.598M354.32 98.394c-.069 0-.142-.022-.205-.057l-10.704-6.198c-.197-.11-.263-.362-.15-.563.112-.195.369-.258.56-.148l10.704 6.197c.195.11.263.363.151.563-.074.13-.214.206-.356.206" transform="translate(-986 -2313) translate(986 2313) translate(93 85)"/>
                    <path fill="#211155" d="M362.513 147.503c-.069 0-.143-.017-.206-.055l-10.703-6.195c-.198-.11-.263-.363-.151-.563.112-.195.37-.264.561-.148l10.704 6.191c.194.116.263.369.15.564-.073.134-.213.206-.355.206M377.633 134.61c-.069 0-.143-.022-.206-.058l-3.864-2.239c-.197-.11-.263-.362-.15-.563.114-.192.366-.263.56-.148l3.865 2.239c.195.11.263.362.15.563-.073.13-.213.206-.355.206M358.484 123.163c-.068 0-.142-.02-.205-.058l-3.862-2.233c-.197-.112-.263-.365-.15-.566.112-.195.37-.263.561-.15l3.862 2.238c.194.11.263.363.15.563-.073.13-.213.206-.356.206M338.194 111.778c-.068 0-.142-.017-.205-.058l-3.865-2.233c-.197-.113-.263-.366-.15-.563.112-.195.37-.261.56-.151l3.866 2.238c.194.113.262.366.15.56-.074.135-.213.207-.356.207M397.816 145.93c-.068 0-.142-.022-.205-.057l-3.862-2.236c-.197-.113-.263-.366-.15-.566.111-.192.369-.264.56-.151l3.862 2.241c.195.11.263.366.151.563-.074.13-.214.206-.356.206M316.323 174.165c-.069 0-.143-.019-.206-.057l-10.703-6.198c-.197-.11-.263-.362-.15-.563.111-.195.366-.263.56-.148l10.704 6.195c.195.112.263.365.15.565-.073.13-.213.206-.355.206" transform="translate(-986 -2313) translate(986 2313) translate(93 85)"/>
                    <path fill="#E8B034" d="M355.625 35.876c-.118 3.17 2.345 5.84 5.51 5.96 3.161.121 5.824-2.354 5.944-5.524.12-3.17-2.347-5.84-5.51-5.96-3.161-.122-5.823 2.353-5.944 5.524M438.501 248.783l-10.128-.011c-.228 0-.414-.181-.414-.41l.008-10.163c0-.226.187-.412.414-.412.227 0 .41.186.41.412l-.007 9.749 9.717.008c.227 0 .411.187.411.415 0 .228-.184.412-.41.412" transform="translate(-986 -2313) translate(986 2313) translate(93 85)"/>
                    <path fill="#05CE7C" d="M211.8 11.227c-.227 0-.41-.184-.41-.412l.008-9.746-9.718-.008c-.227 0-.414-.184-.414-.412 0-.231.187-.412.414-.412l10.128.008c.228 0 .411.184.411.412l-.008 10.158c0 .228-.183.412-.41.412" transform="translate(-986 -2313) translate(986 2313) translate(93 85)"/>
                    <path fill="#0B242E" d="M16.535 198.456l-10.128-.01c-.228 0-.414-.182-.414-.413L6 187.875c0-.228.186-.412.413-.412.228 0 .411.184.411.412l-.005 9.746 9.717.009c.228 0 .411.186.411.414 0 .228-.183.412-.41.412" transform="translate(-986 -2313) translate(986 2313) translate(93 85)"/>
                    <path fill="#027043" d="M141.084 304.756L187.87 310.937 142.91 355.345 83.325 313.294z" transform="translate(-986 -2313) translate(986 2313) translate(93 85)"/>
                </g>
                <g transform="translate(-986 -2313) translate(986 2313) translate(176 363)">
                    <mask id="54ssrh87dd" fill="#fff">
                        <use xlink:href="#4d0azz14mc"/>
                    </mask>
                    <path fill="#027043" d="M34.481 5.402L0.641 35.815 61.848 72.199 114.702 24.916 72.844 0.703z" mask="url(#54ssrh87dd)"/>
                </g>
                <g>
                    <path fill="#022E1C" d="M91.963 367.965L71.787 356.316 110.195 351.622z" transform="translate(-986 -2313) translate(986 2313) translate(138 13)"/>
                    <g transform="translate(-986 -2313) translate(986 2313) translate(138 13)">
                        <mask id="pvq2nc7hig" fill="#fff">
                            <use xlink:href="#ks5y590m8e"/>
                        </mask>
                        <path fill="url(#p0zq7m2def)" d="M175.02 78.255c-14.534 11.202-27.657 3.04-41.309 6.22-18.767 3.335-35.845 13.618-53.918 20.393-21.665 8.811-63.28 12.312-63.28 29.65 0 26.236 60.22 4.66 77.907-.56 23.545-6.95-55.097 62.292-83.1 82.464-18.326 12.507-14.471 33.562 13.718 21.055-25.525 29.524 4.915 33.938 19.976 20.088 2.993 22.771 44.62-6.284 56.03-17.121 12.631 22.524 31.053-5.18 59.288-18.687 36.525-17.477 40.243-25.645 45.528-35.141 11.368-20.42 25.283-46.684 34.069-53.296 12.029-9.056 117.44-70.694 117.44-70.694L265.566.184s-84.372 73.315-90.546 78.071" mask="url(#pvq2nc7hig)"/>
                    </g>
                    <path fill="#FFC49D" d="M239.153 32.87c-9.21-3.934-17.12-3.172-22.426 1.215-.65.54-35.533 34.34-41.707 39.097-14.534 11.202-27.657 3.038-41.309 6.218-18.767 3.334-35.845 13.617-53.918 20.394-21.665 8.812-63.28 12.31-63.28 29.65 0 26.234 60.22 4.661 77.907-.562 23.545-6.95-55.097 62.292-83.1 82.464-18.326 12.507-14.471 33.562 13.718 21.058-25.525 29.521 4.915 33.935 19.976 20.087 2.993 22.77 44.62-6.286 56.03-17.123 12.631 22.524 31.053-5.177 59.288-18.687 36.525-17.477 40.243-25.642 45.528-35.141 11.368-20.42 25.283-46.684 34.069-53.296 12.029-9.053 24.883-18.967 28.01-21.385 5.653-4.12 8.671-12.043 7.654-22.694-1.965-20.592-18.279-43.577-36.44-51.295" transform="translate(-986 -2313) translate(986 2313) translate(138 13)"/>
                    <path fill="#F9A67B" d="M50.849 133.51s-35.66 12.137-28.86-13.768c-3.425 2.69-5.473 5.856-5.473 9.708 0 25.307 56.033 6.127 75.866.049-20.006-6.818-41.533 4.01-41.533 4.01M274.228 76.462c-.376 7.555-3.339 12.992-7.62 16.48-14.294 11.62-36.183 15.684-36.183 15.684s-13.323 37.299-24.42 57.227c-5.162 9.28-17.443 35.287-53.11 52.356-27.559 13.184-53.9 30.686-41.898 2.585-11.147 10.572-58.541 47.904-61.477 25.672-14.699 13.527-45.8 11.638-20.878-17.187-18.087 8.022-25.694-1.403-23.696-12.28-10.39 12.102-4.147 26.158 20.091 15.409-25.527 29.518 4.918 33.935 19.979 20.081 2.999 22.775 44.612-6.28 56.03-17.12 12.629 22.53 31.048-5.174 59.289-18.69 36.517-17.472 40.24-25.644 45.53-35.147 11.366-20.416 25.28-46.678 34.058-53.28 12.035-9.063 24.894-18.976 28.022-21.397 5.652-4.118 8.662-12.036 7.648-22.695-.247-2.536-.71-5.124-1.365-7.698" transform="translate(-986 -2313) translate(986 2313) translate(138 13)"/>
                    <path fill="#F9A67B" d="M227.81 117.342c.4-.447 12.021-10.511 12.449-10.93-10.458-7.779-23.556-12.774-26.755-14.416 5.107 5.985 14.306 15.103 14.306 25.346M96.972 123.026c-.543 1.387-1.426 3.514-2.552 5.858 3.212-.935 5.75-1.562 7.228-1.719.036-.504.055-1.041.055-1.6-.013-7.515-.573-14.786-1.834-22.16.055 6.971-.367 13.156-2.897 19.62M44.097 112.105c-.216.09-.433.175-.65.26 5.275 5.456 5.664 22.517 7.5 26.895 8.197-9.25-.035-22.714-6.85-27.155M87.166 180.007c-12.292 12.167-27.625 21.82-40.742 33.099-8.177 7.04-19.37 12.945-26.733 21.148 1.77-.65 3.539-1.327 5.345-1.85 5.11-4.677 9.902-7.929 15.44-12.052 11.708-8.735 22.158-19.057 33.74-27.975 5.918-4.562 12.13-8.7 17.843-13.519 3.243-2.73 9.792-7.057 10.943-10.963-6.17.784-11.502 7.824-15.836 12.112M61.972 231.657c-16.744 16.269-19.28 22.956-18.301 22.117.471-.403.896-.81 1.277-1.212l.006-.011c.597-.855 1.187-1.705 1.749-2.495 3.583-5.028 9.142-10.39 13.742-14.602 10.4-9.535 21.012-18.96 31.626-28.306 13.019-11.457 26.794-21.763 40.002-32.902-9.979 1.357-20.037 10.98-27.668 17.258-15.01 12.362-28.54 26.657-42.433 40.153M104.607 226.437c-2.681 4.266-3.594 8.96-3.594 8.96 3.876-6.699 8.125-11.823 13.874-17.541 4.742-4.727 9.98-8.946 14.86-13.52 5.598-5.241 15.157-11.196 18.743-17.784-9.176 9.176-32.038 21.034-43.883 39.885" transform="translate(-986 -2313) translate(986 2313) translate(138 13)"/>
                    <path fill="#F9A67B" d="M148.203 186.837c4.772-1.04 8.037-.442 11.354-.285 4.644.224 12.364 2.154 16.857 3.585-5.952-7.226-21.846-7.862-28.211-3.3M176.414 190.138c.016.016.033.03.046.046.17.162.178.151.022-.024-.019-.009-.046-.017-.068-.022M116.643 213.91c1.258-.36 2.566-.647 3.895-.886-.096-.003-.194-.014-.293-.014-2.793-.013-5.337 1.429-3.602.9M120.538 213.024c2.44.076 5.05.923 7.478 1.36 5.656 1.014 14.025.726 18.866 3.827-4.433-2.558-7.35-5.138-12.673-5.678-4.45-.447-9.22-.305-13.671.49M71.157 223.818c3.133.856 4.397 3.14 8.095 4.954 3.26 1.599 8.454.519 10.628 3.671-1.719-3.986-17.103-11.906-18.723-8.625M100.048 198.212c-.107.43.038.872-.066 1.286-2.316-.134-2.62.302-2.714.856 2.39.342 18.638 4.775 21.917 4.57-4.773-3.953-12.975-7.2-19.137-6.712M126.55 176.077c3.027 3.298 14.135 5.203 25.533 4.975-3.298-1.53-6.332-3.26-9.784-4.301-5.51-1.661-10.318-.417-15.748-.674M34.68 222.916c1.301 3.644 19.186 6.383 23.281 5.766-5.76-3.523-16.955-8.269-23.282-5.766M71.59 194.092c6.207 3.09 13.647 1.958 21.024 4.998-4.554-5.096-14.792-5-21.023-4.998M101.402 169.785c6.993-1.36 11.125-.891 22.504 1.478-5.028-2.498-18.26-4.996-22.504-1.478M25.748 201.005c-.482.345-.954.688-1.422 1.025 3.108 1.45 6.423 4.211 8.128 5.93 2.404 2.424 3.056 5.171 4.84 7.252.535-5.999-5.062-12.713-11.546-14.207M60.374 174.898c-1.042.831-2.084 1.662-3.134 2.487 5.085 1.483 8.783 9.168 12.94 10.796.838-4.504-4.485-11.204-9.806-13.283" transform="translate(-986 -2313) translate(986 2313) translate(138 13)"/>
                    <path fill="#F9A67B" d="M100.002 164.026c-1.63-2.739-4.238-4.927-6.883-6.687-1.85-1.233-4.501-1.875-6.72-1.727-.64.041-1.77.22-2.214.628 2.385.271 4.485 1.861 6.51 3.051 1.61.949 2.964 1.9 4.285 3.219 1.034 1.03 2.358 1.631 3.208 2.826.836 1.174 1.387 2.632 2.014 3.926.077.151.176.732.313.82.502.31 1.804-.743 1.968-1.151-.194-.08-.416-.105-1.338-.135.842-1.327-.457-3.621-1.143-4.77M225.853 58.875l-7.19 5.856-7.059 6.015c-2.305 2.061-4.657 4.065-6.919 6.182-4.57 4.175-9.046 8.458-13.282 13.03 5.264-3.339 10.283-6.974 15.21-10.714 2.491-1.842 4.887-3.794 7.33-5.691l7.187-5.856 7.059-6.02c2.305-2.06 4.655-4.069 6.916-6.183 4.567-4.178 9.05-8.455 13.287-13.025-5.26 3.34-10.277 6.98-15.208 10.72-2.49 1.842-4.888 3.788-7.33 5.686M218.347 74.614c-2.434 2.046-4.866 4.096-7.234 6.221l-3.55 3.191c-1.152 1.1-2.333 2.166-3.46 3.296 1.313-.905 2.574-1.876 3.865-2.813l3.78-2.915c2.517-1.946 4.968-3.967 7.421-5.993 2.432-2.048 4.863-4.095 7.232-6.22 2.377-2.117 4.74-4.247 7.012-6.484-2.612 1.831-5.134 3.77-7.643 5.724-2.519 1.947-4.97 3.97-7.423 5.993" transform="translate(-986 -2313) translate(986 2313) translate(138 13)"/>
                    <path fill="#193535" d="M137.38 168.987c-6.917-4.137-18.296-4.25-25.415-.258-3.885 2.183-5.7 5.138-5.415 8.047 1.873 13.826 18.373 16.765 28.146 11.358 4.652-2.802 7.04-6.275 7.738-11.257.288-2.818-1.39-5.697-5.055-7.89" transform="translate(-986 -2313) translate(986 2313) translate(138 13)"/>
                    <path fill="#50676A" d="M148.058 174.32c-12.506 5.245-31.169 5.231-43.5-.04-13.48-5.76-16.09-16.297-3.596-23.641 13.841-8.135 38.236-8.063 51.663.126 12.087 7.37 9.057 17.845-4.567 23.555m6.497-24.501c-14.367-8.891-40.678-8.97-55.498-.137-13.279 7.912-10.285 19.16 4.14 25.266 13.122 5.552 32.887 5.565 46.185.038 14.57-6.047 18.005-17.228 5.173-25.167" transform="translate(-986 -2313) translate(986 2313) translate(138 13)"/>
                    <path fill="#8E8C92" d="M149.383 174.987c-13.3 5.527-33.066 5.513-46.188-.041-14.422-6.103-17.416-17.352-4.137-25.264 14.82-8.833 41.13-8.754 55.498.137 12.83 7.94 9.395 19.12-5.173 25.168m5.573-25.187c-20.03-12.976-63.817-7.073-65.155 11.794-1.24 17.472 34.178 26.12 59.31 16.666.067-.024.138-.055.083-.03 17.591-7.706 17.893-20.57 5.762-28.43" transform="translate(-986 -2313) translate(986 2313) translate(138 13)"/>
                    <path fill="#193535" d="M148.62 171.04c-12.851 5.517-31.994 5.503-44.67-.052-6.639-2.906-10.693-6.897-11.784-11.155l.995 3.888c1.03 4.024 4.948 7.802 11.398 10.56 12.33 5.27 30.99 5.283 43.5.038 6.746-2.826 10.847-6.75 11.875-10.905l.96-3.893c-1.086 4.397-5.33 8.54-12.274 11.52" transform="translate(-986 -2313) translate(986 2313) translate(138 13)"/>
                    <path fill="#50676A" d="M149.244 167.389c-13.235 5.826-32.91 5.806-45.972-.063-14.345-6.451-17.309-18.32-4.095-26.657 14.734-9.296 40.889-9.203 55.182.17 12.772 8.373 9.375 20.17-5.115 26.55m7.141-27.597c-15.27-10.166-43.452-10.272-59.207-.189-14.016 8.973-10.633 21.628 4.696 28.447 13.877 6.17 34.678 6.193 48.732.065 15.472-6.744 19.316-19.314 5.779-28.323" transform="translate(-986 -2313) translate(986 2313) translate(138 13)"/>
                    <path fill="#8E8C92" d="M150.607 168.114c-14.055 6.128-34.856 6.108-48.733-.063-15.33-6.82-18.715-19.476-4.696-28.446 15.755-10.087 43.938-9.98 59.207.186 13.537 9.009 9.694 21.579-5.778 28.323m6.211-28.345c-21.324-14.867-68.212-8.107-69.314 13.324-1 19.531 36.32 29.096 62.782 18.66.036-.017.131-.056.085-.04 18.674-8.567 19.233-23.026 6.447-31.944" transform="translate(-986 -2313) translate(986 2313) translate(138 13)"/>
                    <path fill="#193535" d="M149.857 163.72c-13.613 6.145-33.808 6.12-47.244-.073-7.094-3.276-11.464-7.783-12.664-12.603l1.09 4.384c1.135 4.545 5.352 8.803 12.235 11.895 13.06 5.873 32.734 5.892 45.97.066 7.198-3.17 11.606-7.583 12.735-12.282l1.056-4.384c-1.201 4.979-5.763 9.65-13.178 12.998" transform="translate(-986 -2313) translate(986 2313) translate(138 13)"/>
                    <path fill="#50676A" d="M150.556 159.635c-14.044 6.511-34.831 6.481-48.7-.09-15.32-7.263-18.7-20.721-4.698-30.254 15.743-10.72 43.9-10.59 59.163.225 13.526 9.585 9.693 22.955-5.765 30.12m7.925-31.312c-16.297-11.734-46.635-11.874-63.456-.247-14.836 10.259-10.979 24.603 5.376 32.27 14.718 6.901 36.673 6.932 51.572.094 16.492-7.57 20.823-21.806 6.508-32.117" transform="translate(-986 -2313) translate(986 2313) translate(138 13)"/>
                    <path fill="#8E8C92" d="M151.972 160.441c-14.899 6.838-36.851 6.807-51.57-.093-16.354-7.668-20.214-22.012-5.375-32.271 16.818-11.627 47.159-11.487 63.453.247 14.318 10.31 9.987 24.548-6.508 32.117m6.968-32.14c-22.788-17.2-73.25-9.384-74.026 15.178-.696 21.974 38.743 32.616 66.677 21.028.069-.028.14-.06.096-.039 19.888-9.595 20.774-25.96 7.253-36.166" transform="translate(-986 -2313) translate(986 2313) translate(138 13)"/>
                    <path fill="#193535" d="M151.257 155.531c-14.477 6.892-35.859 6.854-50.16-.107-7.553-3.676-12.265-8.748-13.658-14.201l1.27 4.973c1.305 5.116 5.841 9.886 13.147 13.349 13.868 6.571 34.656 6.601 48.7.09 7.631-3.54 12.368-8.48 13.67-13.765l1.226-4.976c-1.387 5.634-6.308 10.884-14.195 14.637" transform="translate(-986 -2313) translate(986 2313) translate(138 13)"/>
                    <path fill="#8E8C92" d="M153.506 151.82c-15.85 7.68-39.094 7.636-54.763-.129-17.526-8.688-21.956-25.077-6.201-36.92 18.035-13.557 50.89-13.376 68.352.323 15.192 11.912 10.266 28.173-7.388 36.726m7.884-36.753c-24.466-20.126-79.095-10.977-79.435 17.447-.296 24.916 41.512 36.822 71.101 23.882.085-.038.187-.143.29-.239-.062.077-.125.162-.194.192 21.281-10.812 22.575-29.488 8.238-41.282" transform="translate(-986 -2313) translate(986 2313) translate(138 13)"/>
                    <path fill="#50676A" d="M152.028 150.92c-14.956 7.326-36.988 7.28-51.764-.126-16.429-8.23-20.324-23.624-5.433-34.631 16.889-12.485 47.378-12.32 63.749.296 14.37 11.076 10.009 26.355-6.552 34.461m8.866-35.826c-17.462-13.697-50.317-13.88-68.352-.324-15.755 11.844-11.325 28.233 6.203 36.92 15.667 7.765 38.91 7.809 54.76.13 17.655-8.554 22.581-24.814 7.389-36.726" transform="translate(-986 -2313) translate(986 2313) translate(138 13)"/>
                    <path fill="#193535" d="M99.014 143.973c-8.24-4.299-13.462-10.267-15.099-16.713l2.116 8.337c1.484 5.845 6.401 11.274 14.233 15.197 14.776 7.405 40.882 8.474 57.743-3.468 4.672-3.31 7.065-7.912 7.065-7.912-15.672 7.986-50.564 12.65-66.058 4.559" transform="translate(-986 -2313) translate(986 2313) translate(138 13)"/>
                </g>
                <g transform="translate(-986 -2313) translate(986 2313) translate(217 90)">
                    <mask id="nnjak8dt4j" fill="#fff">
                        <use xlink:href="#mxq2bft9xh"/>
                    </mask>
                    <path fill="url(#7liu1v6iti)" d="M14.773 8.46c-19.254 10.822-19.69 28.678-.975 39.879 18.713 11.206 49.493 11.519 68.745.7 19.255-10.823 19.693-28.68.975-39.886C73.948 3.425 61.223.545 48.498.545c-12.158 0-24.316 2.628-33.725 7.914" mask="url(#nnjak8dt4j)"/>
                </g>
                <g>
                    <path fill="#8E8C92" d="M86.518 139.394c-19.28 10.892-50.101 10.58-68.838-.701-9.215-5.548-13.793-12.71-13.773-19.86l-.047 16.543c-.02 7.147 4.558 14.314 13.773 19.86 18.74 11.28 49.558 11.596 68.836.7 9.799-5.536 14.733-12.902 14.75-20.286l.049-16.543c-.022 7.385-4.953 14.75-14.75 20.287" transform="translate(-986 -2313) translate(986 2313) translate(213)"/>
                    <path fill="#61380F" d="M81.215 93.266C65.868 82.462 40.628 82.16 24.84 92.595c-15.786 10.43-20.586 30.61-3.7 40.298 16.88 9.685 44.646 9.953 62.015.6 17.369-9.354 13.408-29.426-1.939-40.227" transform="translate(-986 -2313) translate(986 2313) translate(213)"/>
                    <path fill="#079E60" d="M62.387 36.45c-2.246-1.012-3.59-3.119-3.59-3.119s1.98 17.067 7.81 13.734c2.115-1.21.804-8.357-4.22-10.616" transform="translate(-986 -2313) translate(986 2313) translate(213)"/>
                    <path fill="#05CE7C" d="M64.655 40.546c-5.197-3.24-5.858-7.214-5.858-7.214S56.85 46.26 65.651 49.546c0 0 4.717-5.438-.996-9M40.307 66.89c19.884-3.95 16.439-25.356 16.439-25.356C46.676 45.89 40.307 66.89 40.307 66.89" transform="translate(-986 -2313) translate(986 2313) translate(213)"/>
                    <path fill="#079E60" d="M39.798 67.103s12.13-4.58 11.483-14.811c-.518-8.233 5.466-10.757 5.466-10.757S34.373 48.37 39.798 67.103" transform="translate(-986 -2313) translate(986 2313) translate(213)"/>
                    <path fill="#05CE7C" d="M64.047 62.458S83.1 54.897 86.402 45.076c0 0-20.158-1.66-22.355 17.382" transform="translate(-986 -2313) translate(986 2313) translate(213)"/>
                    <path fill="#079E60" d="M76.807 51.026c-9.56.152-12.92 11.925-12.92 11.925 17.82 3.726 22.516-17.874 22.516-17.874s-1.903 5.83-9.596 5.95" transform="translate(-986 -2313) translate(986 2313) translate(213)"/>
                    <path fill="#05CE7C" d="M.773 51.884c8.982 11.516 37.9 12.565 37.9 12.565C26.853 40.124.772 51.884.772 51.884" transform="translate(-986 -2313) translate(986 2313) translate(213)"/>
                    <path fill="#079E60" d="M16.334 55.266C6.033 58.748.772 51.882.772 51.882s16.343 26.554 38.344 13.152c0 0-9.975-14.096-22.782-9.768" transform="translate(-986 -2313) translate(986 2313) translate(213)"/>
                    <g transform="translate(-986 -2313) translate(986 2313) translate(213) translate(29.06)">
                        <mask id="in5xiv5l2l" fill="#fff">
                            <use xlink:href="#hny7d41n6k"/>
                        </mask>
                        <path fill="#079E60" d="M5.288 42.96c6.582 2.988 21.315-12.699 17.9-28.802C21.662 6.95 24.33.018 24.33.018S-12.87 34.716 5.288 42.96" mask="url(#in5xiv5l2l)"/>
                    </g>
                    <path fill="#05CE7C" d="M26.84 44.365s18.233 1.455 24.708-5.118c0 0-15.528-9.293-24.708 5.118" transform="translate(-986 -2313) translate(986 2313) translate(213)"/>
                    <g fill="#05CE7C">
                        <path d="M2.077 45s21.225 1.868 19.7-18.18C20.389 8.58 28.707.02 28.707.02S-5.523 17.978 2.077 45" transform="translate(-986 -2313) translate(986 2313) translate(213) translate(24.683)"/>
                    </g>
                    <path fill="#079E60" d="M41.531 40.233c-7.729-3.657-15.01 4.463-15.01 4.463C39.37 54.723 51.547 39.25 51.547 39.25s-3.796 3.921-10.016.983" transform="translate(-986 -2313) translate(986 2313) translate(213)"/>
                    <path fill="#05CE7C" d="M5.505 6.656c-.392 16.21 23.57 37.633 23.57 37.633C36.01 15.126 5.505 6.656 5.505 6.656" transform="translate(-986 -2313) translate(986 2313) translate(213)"/>
                    <path fill="#079E60" d="M16.427 20.591C5.191 16.25 5.507 6.656 5.507 6.656S.873 40.93 29.045 45.104c0 0 1.35-19.12-12.619-24.513M29.993 74.274c-3.722 1.438-7.652.585-7.652.585s21.705 17.2 24.562 6.664c1.04-3.822-8.598-10.47-16.91-7.25" transform="translate(-986 -2313) translate(986 2313) translate(213)"/>
                    <path fill="#05CE7C" d="M37.251 76.334c-9.63 2.303-14.911-1.475-14.911-1.475s12.508 17.015 26.298 10.6c0 0-.806-11.66-11.387-9.125" transform="translate(-986 -2313) translate(986 2313) translate(213)"/>
                    <path fill="#E8B034" d="M54.746 95.593c-.958-4.692-2.238-9.31-3.848-13.81-1.607-4.502-3.645-8.85-5.996-13.006l-1.834-3.076-2.035-2.95-3.887-5.625c-.674-.914-1.23-1.892-1.782-2.875l-1.692-2.939c-.604-.963-1.015-2.018-1.511-3.032l-1.446-3.076c-1.623-4.212-3.146-8.526-3.878-13.027-.82-4.471-1.212-9.067-.908-13.648.283-4.577 1.092-9.17 2.76-13.483-1.967 4.19-3.113 8.766-3.72 13.391-.636 4.632-.564 9.36-.043 14.03.438 4.697 1.69 9.262 3.085 13.778l1.275 3.303c.445 1.093.801 2.234 1.358 3.275l1.547 3.19c.51 1.069 1.023 2.135 1.656 3.134l3.576 6.046 1.71 2.88 1.508 2.994c1.922 4.035 3.54 8.213 4.747 12.524 1.207 4.311 2.103 8.708 2.69 13.14.313 2.212.5 4.44.65 6.659.121 2.187.192 4.512.116 6.514l-.006.108c-.003.086-.003.177 0 .265.066 2.151 1.851 3.839 3.985 3.77 2.134-.066 3.81-1.864 3.744-4.013-.08-2.629-.332-4.927-.628-7.346-.33-2.383-.697-4.75-1.193-7.095" transform="translate(-986 -2313) translate(986 2313) translate(213)"/>
                    <path fill="#079E60" d="M39.945 83.95c-6.154-.104-7.673-4.772-7.673-4.772s3.735 17.289 18.002 14.325c0 0-2.68-9.423-10.329-9.552" transform="translate(-986 -2313) translate(986 2313) translate(213)"/>
                    <path fill="#E8B034" d="M66.637 44.478c-1.119 4.443-2.704 8.73-4.585 12.867-1.923 4.125-4.164 8.088-6.604 11.902-1.215 1.909-2.496 3.778-3.834 5.593-1.309 1.8-2.74 3.645-4.1 5.22l-.047.055c-.113.13-.217.273-.313.422-1.165 1.806-.658 4.223 1.138 5.396 1.794 1.177 4.194.66 5.362-1.146 1.388-2.16 2.531-4.175 3.675-6.31 1.138-2.107 2.202-4.245 3.195-6.415 1.991-4.336 3.741-8.772 5.137-13.326 1.355-4.565 2.372-9.226 2.882-13.935.409-4.728.253-9.475-.647-14.049.26 4.67-.244 9.269-1.259 13.726" transform="translate(-986 -2313) translate(986 2313) translate(213)"/>
                    <path fill="#079E60" d="M62.309 78.12c3.48 4.578 19.623-.788 23.257-13.32 1.629-5.612 6.08-9.437 6.08-9.437S52.716 65.488 62.31 78.12" transform="translate(-986 -2313) translate(986 2313) translate(213)"/>
                    <path fill="#05CE7C" d="M56.25 76.671s14.117 9.346 20.545-5.228c5.848-13.256 14.851-16.08 14.851-16.08s-30.601-.434-35.395 21.308" transform="translate(-986 -2313) translate(986 2313) translate(213)"/>
                </g>
            </g>
        </g>
    </g>
</svg>
