<svg width="129" height="24" viewBox="0 0 129 24" fill="none" xmlns="http://www.w3.org/2000/svg">
<path d="M9.06343 24C7.41142 24 5.77072 23.7865 4.14134 23.3596C2.51196 22.9101 1.13151 22.2809 0 21.4719L2.13856 17.2921C3.04377 17.9438 4.09608 18.4607 5.29548 18.8427C6.49489 19.2247 7.70561 19.4157 8.92764 19.4157C10.3081 19.4157 11.3943 19.1461 12.1864 18.6067C12.9785 18.0674 13.3745 17.3258 13.3745 16.382C13.3745 15.4831 13.0237 14.7753 12.3222 14.2584C11.6206 13.7416 10.4891 13.4831 8.92764 13.4831H6.41568V9.8764L13.035 2.42697L13.6461 4.38202H1.18809V0H17.8213V3.53933L11.2359 10.9888L8.45241 9.40449H10.0478C12.9671 9.40449 15.1736 10.0562 16.6672 11.3596C18.1608 12.6629 18.9076 14.3371 18.9076 16.382C18.9076 17.7079 18.5568 18.9551 17.8553 20.1236C17.1537 21.2697 16.0788 22.2022 14.6305 22.9213C13.1821 23.6404 11.3265 24 9.06343 24Z" fill="white"/>
<path d="M22.9402 23.5955V0H33.7348C36.3147 0 38.589 0.494382 40.5579 1.48315C42.5267 2.44944 44.0656 3.80899 45.1744 5.5618C46.2833 7.31461 46.8378 9.39326 46.8378 11.7978C46.8378 14.1798 46.2833 16.2584 45.1744 18.0337C44.0656 19.7865 42.5267 21.1573 40.5579 22.1461C38.589 23.1124 36.3147 23.5955 33.7348 23.5955H22.9402ZM28.4394 19.1124H33.4633C35.0474 19.1124 36.4165 18.8202 37.5707 18.236C38.7475 17.6292 39.6527 16.7753 40.2863 15.6742C40.9426 14.573 41.2707 13.2809 41.2707 11.7978C41.2707 10.2921 40.9426 9 40.2863 7.92135C39.6527 6.82023 38.7475 5.97753 37.5707 5.39326C36.4165 4.78652 35.0474 4.48315 33.4633 4.48315H28.4394V19.1124Z" fill="white"/>
<path d="M60.5984 23.5955V0H66.0975V19.1461H78.0124V23.5955H60.5984Z" fill="white"/>
<path d="M78.0946 23.5955L88.6856 0H94.1168L104.742 23.5955H98.971L90.281 2.76405H92.4535L83.7295 23.5955H78.0946ZM83.3901 18.5393L84.8497 14.3933H97.0701L98.5637 18.5393H83.3901Z" fill="white"/>
<path d="M107.207 23.5955V0H118.816C121.804 0 124.044 0.561798 125.538 1.68539C127.054 2.80899 127.812 4.29214 127.812 6.13483C127.812 7.37079 127.506 8.44944 126.895 9.37079C126.284 10.2697 125.447 10.9663 124.383 11.4607C123.32 11.9551 122.098 12.2022 120.717 12.2022L121.362 10.8202C122.856 10.8202 124.18 11.0674 125.334 11.5618C126.488 12.0337 127.382 12.7416 128.016 13.6854C128.672 14.6292 129 15.7865 129 17.1573C129 19.1798 128.197 20.764 126.59 21.9101C124.983 23.0337 122.618 23.5955 119.495 23.5955H107.207ZM112.672 19.4831H119.088C120.514 19.4831 121.589 19.2584 122.313 18.809C123.06 18.3371 123.433 17.5955 123.433 16.5843C123.433 15.5955 123.06 14.8652 122.313 14.3933C121.589 13.8989 120.514 13.6517 119.088 13.6517H112.265V9.67416H118.137C119.473 9.67416 120.491 9.44944 121.193 9C121.917 8.52809 122.279 7.82022 122.279 6.8764C122.279 5.95506 121.917 5.26966 121.193 4.82022C120.491 4.34832 119.473 4.11236 118.137 4.11236H112.672V19.4831Z" fill="white"/>
</svg>
