<svg width="27" height="27" viewBox="0 0 27 27" fill="none" xmlns="http://www.w3.org/2000/svg">
<path fill-rule="evenodd" clip-rule="evenodd" d="M18.2903 10.0161C18.2903 11.2866 17.7856 12.505 16.8872 13.4034C15.9889 14.3018 14.7705 14.8064 13.5 14.8064C12.2295 14.8064 11.0111 14.3018 10.1127 13.4034C9.21435 12.505 8.70966 11.2866 8.70966 10.0161C8.70966 8.74565 9.21435 7.52721 10.1127 6.62885C11.0111 5.73049 12.2295 5.2258 13.5 5.2258C14.7705 5.2258 15.9889 5.73049 16.8872 6.62885C17.7856 7.52721 18.2903 8.74565 18.2903 10.0161ZM15.8951 10.0161C15.8951 10.6514 15.6428 11.2606 15.1936 11.7098C14.7444 12.1589 14.1352 12.4113 13.5 12.4113C12.8647 12.4113 12.2555 12.1589 11.8063 11.7098C11.3572 11.2606 11.1048 10.6514 11.1048 10.0161C11.1048 9.38089 11.3572 8.77167 11.8063 8.32249C12.2555 7.87331 12.8647 7.62096 13.5 7.62096C14.1352 7.62096 14.7444 7.87331 15.1936 8.32249C15.6428 8.77167 15.8951 9.38089 15.8951 10.0161Z" fill="white"/>
<path fill-rule="evenodd" clip-rule="evenodd" d="M13.5 0C6.04432 0 0 6.04432 0 13.5C0 20.9557 6.04432 27 13.5 27C20.9557 27 27 20.9557 27 13.5C27 6.04432 20.9557 0 13.5 0ZM2.45455 13.5C2.45455 16.065 3.32959 18.4263 4.79618 20.3015C5.82615 18.949 7.15488 17.8528 8.67858 17.0987C10.2023 16.3447 11.8797 15.9531 13.5798 15.9545C15.2579 15.953 16.9142 16.3344 18.4225 17.0699C19.9308 17.8053 21.2514 18.8754 22.2836 20.1985C23.347 18.8038 24.0629 17.1759 24.3723 15.4496C24.6816 13.7233 24.5754 11.9482 24.0625 10.271C23.5496 8.5939 22.6447 7.06301 21.4226 5.80505C20.2006 4.54708 18.6966 3.59819 17.035 3.0369C15.3734 2.4756 13.6021 2.31804 11.8676 2.57724C10.133 2.83644 8.48511 3.50496 7.06022 4.52747C5.63533 5.54999 4.4744 6.89711 3.67351 8.45738C2.87261 10.0176 2.45477 11.7462 2.45455 13.5ZM13.5 24.5455C10.9644 24.5493 8.50533 23.677 6.53891 22.0762C7.33041 20.9431 8.38391 20.0179 9.60978 19.3795C10.8356 18.741 12.1976 18.4081 13.5798 18.4091C14.9447 18.408 16.2902 18.7326 17.5045 19.3558C18.7188 19.9791 19.7669 20.8831 20.5617 21.9927C18.58 23.6455 16.0804 24.5491 13.5 24.5455Z" fill="white"/>
</svg>
